<!DOCTYPE svg PUBLIC "-//W3C//DTD SVG 1.1//EN" "http://www.w3.org/Graphics/SVG/1.1/DTD/svg11.dtd">

<!-- Uploaded to: SVG Repo, www.svgrepo.com, Transformed by: SVG Repo Mixer Tools -->
<svg fill="#ffffff" height="20px" width="20px"  version="1.1" id="Capa_1" xmlns="http://www.w3.org/2000/svg" xmlns:xlink="http://www.w3.org/1999/xlink" viewBox="0 0 55.662 55.662" xml:space="preserve" stroke="#ffffff">

<g id="SVGRepo_bgCarrier" stroke-width="0"/>

<g id="SVGRepo_tracerCarrier" stroke-linecap="round" stroke-linejoin="round"/>

<g id="SVGRepo_iconCarrier"> <g> <path d="M44.01,11.652C36.496,4.138,26.5,0,15.861,0c-0.95,0-1.911,0.034-2.858,0.101c-0.662,0.047-1.214,0.525-1.358,1.173 L0.035,53.838c-0.11,0.5,0.042,1.021,0.404,1.384c0.284,0.284,0.667,0.439,1.061,0.439c0.107,0,0.216-0.012,0.324-0.035 l52.564-11.609c0.648-0.144,1.125-0.695,1.172-1.358C56.384,31.118,52.174,19.816,44.01,11.652z M12.738,10.238 c8.982-0.947,17.736,2.121,24.151,8.535c6.414,6.415,9.486,15.166,8.535,24.151L3.472,52.19L12.738,10.238z M52.631,41.332 l-4.125,0.911c0.725-9.539-2.67-18.767-9.495-25.592c-6.825-6.826-16.051-10.22-25.592-9.495l0.911-4.125 c10.4-0.435,20.253,3.435,27.559,10.741C49.174,21.059,53.054,31.049,52.631,41.332z"/> <circle cx="21.45" cy="26.36" r="9.762"/> <circle cx="36.626" cy="36.122" r="5.414"/> <circle cx="18.283" cy="42.07" r="3.167"/> </g> </g>

</svg>